PathFileType  4	(X/Y/Z) C:\Users\antoi\Documents\MyRepositories\mobilecap\ResultsAnalysis
DataRate	CameraRate	NumFrames	NumMarkers	Units	OrigDataRate	OrigDataStartFrame	OrigNumFrames
100.0	100.0	6	51	mm	100.0	82	130
Frame#	Time	r_knee			r_shank_antsup			r_ankle			r_calc			r_5meta			r_toe			L_knee			L_shank_antsup			L_ankle			L_calc			L_5meta			L_toe			r_sh2			r_sh3			r_sh4			L_sh2			L_sh3			r_thigh1			r_thigh2			r_thigh3			r_thigh4			r_thigh5			L_thigh1			L_thigh2			L_thigh3			L_thigh4			r.ASIS			r.PSIS			L.ASIS			L.PSIS			C7			R_Shoulder			L_Shoulder			R_Sternum			L_Sternum			R_humerus			R_elbow_med			R_elbow_lat			R_forearm			R_wrist_radius			R_wrist_ulna			L_humerus			L_elbow_med			L_elbow_lat			L_forearm			L_wrist_radius			L_wrist_ulna			R_HJC			L_HJC			R_HJC_reg			L_HJC_reg			
		X1	Y1	Z1	X2	Y2	Z2	X3	Y3	Z3	X4	Y4	Z4	X5	Y5	Z5	X6	Y6	Z6	X7	Y7	Z7	X8	Y8	Z8	X9	Y9	Z9	X10	Y10	Z10	X11	Y11	Z11	X12	Y12	Z12	X13	Y13	Z13	X14	Y14	Z14	X15	Y15	Z15	X16	Y16	Z16	X17	Y17	Z17	X18	Y18	Z18	X19	Y19	Z19	X20	Y20	Z20	X21	Y21	Z21	X22	Y22	Z22	X23	Y23	Z23	X24	Y24	Z24	X25	Y25	Z25	X26	Y26	Z26	X27	Y27	Z27	X28	Y28	Z28	X29	Y29	Z29	X30	Y30	Z30	X31	Y31	Z31	X32	Y32	Z32	X33	Y33	Z33	X34	Y34	Z34	X35	Y35	Z35	X36	Y36	Z36	X37	Y37	Z37	X38	Y38	Z38	X39	Y39	Z39	X40	Y40	Z40	X41	Y41	Z41	X42	Y42	Z42	X43	Y43	Z43	X44	Y44	Z44	X45	Y45	Z45	X46	Y46	Z46	X47	Y47	Z47	X48	Y48	Z48	X49	Y49	Z49	X50	Y50	Z50	X51	Y51	Z51	

82	0.81000000	948.75293	462.97138	-76.74875	908.45334	407.71292	-55.79091	653.07733	250.00505	-120.94672	595.28056	286.01605	-171.60771	659.90305	135.82029	-91.12503	709.36581	110.69520	-137.93197	885.22247	459.90852	-359.76673	907.48074	393.50604	-357.06773	850.00340	89.38094	-317.14337	778.36243	60.33557	-271.63960	943.12071	40.11472	-334.98119	992.35596	63.88712	-278.42012	815.63550	342.21716	-63.56570	868.45417	466.56205	-80.29110	769.19004	404.77587	-92.60497	819.26417	403.10960	-379.35927	817.72597	281.20596	-373.44969	929.44679	777.16219	-99.23483	973.10837	673.80890	-78.39463	924.86616	638.06174	-44.88648	831.39582	748.10035	-53.76736	867.39521	636.69230	-56.38457	935.00778	752.09114	-390.76717	947.05663	612.63417	-375.47083	825.04355	737.62771	-424.62332	843.33474	597.00676	-400.05596	895.83445	910.88251	-104.83874	720.98139	918.10869	-198.82819	921.35662	916.28429	-361.47899	727.70263	920.16740	-306.29378	779.56348	1397.54481	-250.57770	819.66206	1340.59453	-92.07511	853.00769	1340.26817	-407.43157	890.07893	1310.88796	-220.13668	893.57341	1310.10030	-264.62912	831.43563	1103.44676	-8.37341	794.51648	995.76174	-61.05847	808.09715	1017.42022	7.50713	874.31453	915.23094	27.19947	915.71032	803.98307	32.75628	874.98963	789.46767	41.33575	892.19124	1210.32735	-455.11957	824.71441	997.20035	-437.85880	840.36530	1011.02896	-496.85159	896.49950	918.26901	-519.82704	918.70835	794.62505	-520.16416	885.34302	784.47471	-534.73918	837.47266	832.07571	-142.45398	861.06123	839.87932	-341.20108	845.92660	825.28491	-146.14729	856.55510	828.54122	-316.04092	
83	0.82000000	972.92550	468.57959	-76.67225	934.13939	411.93112	-55.59020	684.70979	244.39306	-120.25213	624.87631	277.37969	-170.71689	697.27276	130.78732	-90.29233	747.85898	108.17679	-137.21338	889.51069	460.33934	-359.96011	911.01018	393.73430	-357.17624	850.91738	89.91007	-317.24398	778.52818	61.07066	-271.80258	943.25481	39.98676	-335.04276	992.67216	63.42930	-278.48600	843.67729	343.16143	-63.07957	892.00747	469.21041	-80.34895	794.99115	403.92409	-92.53748	822.88261	404.37505	-379.15092	820.12014	282.47144	-373.40416	944.42270	781.82845	-99.98636	991.39275	680.15037	-78.99348	944.58410	643.25345	-44.61140	847.82580	750.44255	-53.40367	887.27122	640.07125	-55.47238	944.61101	751.63718	-391.64923	954.44039	612.13051	-375.98804	834.25041	738.87894	-424.95643	850.15883	598.05037	-399.89420	908.90189	913.50379	-106.24443	733.52641	919.74572	-198.75659	933.14834	917.04668	-362.84328	739.73973	921.64313	-306.17850	792.55893	1398.74993	-251.18843	831.57117	1341.88927	-92.36511	866.76938	1341.72316	-407.45055	902.86409	1312.14532	-220.06612	906.56824	1311.37630	-264.53994	840.89711	1104.48651	-8.57867	803.93938	997.22401	-61.94094	816.59941	1018.72641	6.82926	880.75526	915.59747	27.88306	920.11831	803.57191	34.58902	878.94584	789.70197	42.46599	907.75381	1212.50753	-454.93156	843.45625	998.04945	-439.53873	860.17648	1012.32218	-498.06886	920.12533	921.26589	-519.14864	947.08615	798.36783	-518.56182	914.07164	787.12739	-533.83049	850.48289	834.33798	-142.70784	872.79527	840.88145	-341.64349	859.17430	826.90448	-147.15582	868.99685	829.90502	-316.96885	
84	0.83000000	996.33350	473.98182	-76.69827	959.22621	415.74969	-55.46974	716.88250	237.64730	-119.59274	655.04435	267.18696	-169.88480	735.63430	125.01972	-89.40664	787.33143	105.16544	-136.41143	893.85364	460.77844	-360.04087	914.58971	393.98675	-357.17980	851.91288	90.52435	-317.29572	778.76505	61.90586	-271.95642	943.41574	39.86672	-335.08330	992.98203	62.95933	-278.53955	871.56161	343.42418	-62.65409	914.70784	471.23825	-80.35884	820.48737	402.04532	-92.50624	826.62029	405.63236	-378.86727	822.62844	283.76938	-373.30560	959.26582	786.19223	-100.73586	1009.29709	686.20303	-79.62811	964.00498	648.30317	-44.27402	864.11269	752.65275	-52.89374	906.98709	643.27303	-54.42961	954.07293	751.08128	-392.78291	961.70639	611.53471	-376.64100	843.26576	740.00081	-425.16637	856.81474	599.06334	-399.62540	922.09717	915.76280	-107.80164	746.09184	921.02396	-198.41582	944.82003	917.64930	-364.37548	751.66259	922.77608	-305.73194	805.49719	1399.73792	-251.77816	843.57717	1343.00138	-92.67001	880.34204	1343.00213	-407.52040	915.65257	1313.17675	-220.08819	919.52280	1312.44372	-264.53151	850.30160	1105.40054	-8.74709	813.33971	998.55337	-62.73316	825.05903	1019.91614	6.20618	887.21345	915.93691	28.61805	924.63267	803.22396	36.46360	882.92413	789.96303	43.48782	923.09239	1214.61865	-454.91439	862.29470	998.85524	-441.00744	879.99248	1013.50946	-499.14581	943.57735	924.39780	-518.40020	975.34170	802.41221	-516.80501	942.75026	790.12526	-532.65681	863.69367	836.24472	-142.99267	884.38734	841.66903	-342.13115	872.53465	828.24330	-148.26232	881.34356	831.01521	-318.01260	
85	0.84000000	1018.93211	479.08433	-76.83372	983.71061	419.12338	-55.43369	749.64234	229.87986	-118.98110	685.91394	255.53255	-169.17030	774.96488	118.70388	-88.43320	827.74228	101.81873	-135.46049	898.16172	461.21803	-360.03984	918.15277	394.26680	-357.13661	852.93134	91.20364	-317.31180	779.08051	62.82646	-272.09058	943.59803	39.75016	-335.11316	993.27839	62.47882	-278.59254	899.30836	343.02542	-62.29922	936.59882	472.58800	-80.29649	845.72529	399.14987	-92.48400	830.36557	406.87809	-378.51627	825.13500	285.09343	-373.14614	973.95709	790.20399	-101.46798	1026.78498	691.87789	-80.27000	983.05970	653.12830	-43.90200	880.20342	754.68312	-52.26390	926.48108	646.21067	-53.34020	963.33395	750.43945	-394.08822	968.82934	610.86726	-377.41717	852.08122	741.03963	-425.22867	863.28937	600.07834	-399.24274	935.38577	917.60683	-109.45254	758.68884	921.92514	-197.86475	956.39584	918.03640	-366.01369	763.51426	923.55461	-305.01665	818.37792	1400.51467	-252.34618	855.70009	1343.90642	-92.98038	893.76215	1344.08701	-407.63458	928.42894	1313.98800	-220.20174	932.42881	1313.30062	-264.60881	859.66606	1106.16833	-8.87906	822.74019	999.71068	-63.42561	833.51228	1020.96107	5.64460	893.70573	916.20891	29.41646	929.21646	802.90914	38.40101	886.94461	790.21686	44.38328	938.25646	1216.61509	-455.04306	881.27421	999.59821	-442.26228	899.76393	1014.57994	-500.09397	966.81811	927.62073	-517.61804	1003.43293	806.73340	-514.91496	971.33066	793.42436	-531.24475	877.05590	837.75475	-143.30212	895.87568	842.19891	-342.64573	885.96809	829.24999	-149.43213	893.60486	831.83062	-319.13260	
86	0.85000000	1040.68229	483.79147	-77.08407	1007.58987	422.02096	-55.47957	783.02695	221.20095	-118.42105	717.62677	242.54015	-168.61896	815.20723	112.00821	-87.35324	868.99858	98.26456	-134.32314	902.36829	461.66418	-359.99857	921.64962	394.57895	-357.10604	853.92208	91.93104	-317.31221	779.46397	63.82235	-272.20385	943.79143	39.63019	-335.14182	993.56922	61.99370	-278.65979	926.93563	341.99717	-62.02366	957.73446	473.21460	-80.15084	870.74115	395.26829	-92.43609	834.02587	408.11984	-378.11359	827.53950	286.44466	-372.92952	988.48049	793.81440	-102.17975	1043.85511	697.09209	-80.89734	1001.70118	657.64834	-43.53112	896.07034	756.48989	-51.54588	945.69123	648.83574	-52.27474	972.37378	749.73516	-395.45939	975.79508	610.15291	-378.29608	860.69829	742.04302	-425.12297	869.59021	601.11457	-398.73687	948.72583	919.00789	-111.12768	771.32724	922.46533	-197.15389	967.89534	918.17701	-367.68562	775.34559	923.99218	-304.10384	831.20341	1401.08637	-252.88892	867.94212	1344.58330	-93.29175	907.06555	1344.95922	-407.78240	941.17669	1314.59023	-220.39659	945.27592	1313.94829	-264.76946	869.01509	1106.76989	-8.97610	832.16817	1000.66703	-64.01681	842.00151	1021.84009	5.14936	900.25316	916.37916	30.28407	933.81818	802.60019	40.40869	891.05434	790.43719	45.16669	953.29250	1218.45309	-455.27697	900.41618	1000.25053	-443.32470	919.44256	1015.53691	-500.92412	989.83477	930.89260	-516.82956	1031.32206	811.29876	-512.91099	999.76952	796.98440	-529.62948	890.51092	838.85408	-143.62192	907.29743	842.45281	-343.16161	899.41564	829.91091	-150.61557	905.78402	832.33276	-320.27496	
87	0.86000000	1061.55193	488.01075	-77.45530	1030.85307	424.41992	-55.60242	817.07243	211.72375	-117.91026	750.32570	228.36720	-168.25538	856.28704	105.08557	-86.15892	910.97517	94.60949	-132.99202	906.44851	462.13349	-359.95315	925.05397	394.92621	-357.13018	854.85343	92.69663	-317.31525	779.89735	64.88642	-272.30167	943.98231	39.50023	-335.17456	993.87678	61.51541	-278.75490	954.45706	340.37806	-61.83389	978.16621	473.07637	-79.93091	895.56960	390.43812	-92.33583	837.54884	409.37171	-377.67599	829.78029	287.82942	-372.66820	1002.83766	796.97806	-102.87666	1060.53061	701.76567	-81.49872	1019.89727	661.78233	-43.20064	911.71225	758.03825	-50.77875	964.53010	651.14236	-51.28455	981.22785	748.99084	-396.78422	982.60535	609.41007	-379.24401	869.14362	743.04903	-424.84032	875.75202	602.17667	-398.09794	962.08144	919.96674	-112.74710	784.01779	922.68764	-196.32496	979.34121	918.07471	-369.31405	787.20710	924.12556	-303.06317	843.98204	1401.45652	-253.40265	880.29105	1345.01734	-93.60361	920.28122	1345.60103	-407.95369	953.88748	1314.99432	-220.65634	958.05856	1314.38948	-265.00323	878.38836	1107.18833	-9.04079	841.65059	1001.41009	-64.51506	850.57215	1022.54152	4.72197	906.88284	916.42536	31.22013	938.40558	802.27417	42.48309	895.32571	790.60402	45.88087	968.23500	1220.09646	-455.56865	919.70124	1000.78302	-444.23049	938.99661	1016.39344	-501.63917	1012.63249	934.17970	-516.04740	1058.96698	816.07824	-510.80451	1028.02041	800.76982	-527.85140	904.00413	839.55657	-143.93102	918.69369	842.44351	-343.64844	912.82240	830.24625	-151.74885	917.88603	832.53098	-321.37589	
